<?xml version="1.0" encoding="UTF-8"?>
<svg id="Layer_2" data-name="Layer 2" xmlns="http://www.w3.org/2000/svg" viewBox="0 0 504.12 101.71">
  <defs>
    <style>
      .cls-1 {
        fill: #fff;
        stroke-width: 0px;
      }
    </style>
  </defs>
  <g id="Layer_1-2" data-name="Layer 1">
    <g>
      <path class="cls-1" d="M23.68,80.52l-.66,6.06h-.02s-3.05-5.27-3.05-5.27l-2.5.53,1.58,7.48,1.49-.32-1.3-6.15.02-.02,3.4,5.73,1.49-.31.79-6.62h.02s1.3,6.17,1.3,6.17l1.49-.32-1.58-7.48-2.5.53ZM78.51,86.58h-.02s-.66-6.07-.66-6.07l-2.5-.53-1.58,7.48,1.5.32,1.3-6.16.03-.02.79,6.62,1.49.31,3.4-5.73h.02s-1.3,6.18-1.3,6.18l1.5.31,1.58-7.48-2.5-.53-3.05,5.28ZM30.92,79.37l-2.14,7.97,1.64-.2.47-1.83,3.2-.4.89,1.66,1.75-.22-4.04-7.21-1.79.22ZM31.21,84.06l.76-3.27h.02s1.53,2.99,1.53,2.99l-2.3.29ZM59.23,84.07h-.02s-2.79-5.85-2.79-5.85l-1.96-.08-.33,7.64,1.53.06.24-5.71h.02l2.8,5.84,1.95.08.32-7.64-1.52-.06-.24,5.71ZM48.18,78.15l-3.02,7.68,1.65-.02.68-1.76,3.23-.03.7,1.75,1.77-.02-3.2-7.61-1.8.02ZM47.94,82.84l1.12-3.17h.02l1.18,3.14-2.33.02ZM65.45,78.8l-3.84,7.3,1.64.16.86-1.67,3.21.32.51,1.81,1.76.17-2.35-7.91-1.79-.18ZM64.7,83.44l1.45-3.03h.02s.83,3.25.83,3.25l-2.31-.23ZM70.47,87.07l1.58.23,1.09-7.57-1.58-.23-1.09,7.57ZM42.06,78.36l.2,3.08-3.18.2-.2-3.08-1.59.1.48,7.63,1.59-.1-.21-3.35,3.18-.2.21,3.34,1.59-.1-.49-7.63-1.59.1ZM69.49,69.86h7.58c-.44-.97-2.18-2.9-2.42-3.93l-9.86-43.91h-1.64l-12.59,36.26-12.58-36.26h-1.64l-9.86,43.91c-.24,1.03-1.97,2.96-2.42,3.93h7.58s6.56-31.76,6.56-31.76l11.51,33.19h1.72l11.52-33.19,6.56,31.75ZM59.82,28.45l-1.03-5h-1.22l-7,20.15-6.99-20.15h-1.22l-1.03,5,9.25,26.66,9.26-26.66ZM32.99,68.65h5.15c-.32-1.09-.6-2.1-.44-2.76l3.19-16.8-2.42-6.97-5.48,26.53ZM93.28,50.35l.62-.02-.07-1.87,1.63-.06.06,1.7.62-.02-.06-1.7,1.44-.05.07,1.87.62-.02-.09-2.51-4.93.18.09,2.51ZM93,55.23l4.9.51.07-.64-4.9-.5-.07.64ZM95.36,56.6c-1.47-.27-2.65.31-2.9,1.66-.25,1.35.64,2.32,2.12,2.59,1.44.27,2.65-.32,2.9-1.66.24-1.34-.68-2.32-2.12-2.59M96.87,59.07c-.18.98-1.18,1.29-2.17,1.1-.96-.18-1.82-.78-1.63-1.8.19-1.02,1.2-1.28,2.17-1.1.99.18,1.82.83,1.63,1.8M93.4,82.21c-.75-.45-1.57-.88-2.46-1.29,6.38-8.46,10.18-18.97,10.18-30.36,0-12.25-4.34-23.83-12.27-33v-3.61c0-.45-.37-.82-.82-.82h-3.53C75.19,4.66,63.24,0,50.56,0S25.93,4.66,16.61,13.13h-3.53c-.45,0-.82.37-.82.82v3.61C4.34,26.74,0,38.31,0,50.56c0,11.39,3.8,21.9,10.18,30.36-.89.41-1.71.84-2.46,1.29-1.16.69-1.45,1.81-.8,3.09.62,1.2,2.72,8.44,3.05,11.07h0c.01.14.04.28.09.42.3.79,1.26,1.49,2.42,1.22.35-.08,1.15-.14,2.1-.18.16.68.7,2.91.7,2.91l4.77-1.02,1.55-.34c.24-.07,2.33-.79,2.23-1.93,0-.06-.02-.15-.06-.25-.11-.46-.77-2.98-1.34-4.67,7.3,4.91,15.93,7.98,25.24,8.5,1.35.45,2.35.68,2.88.68s1.54-.23,2.89-.68c9.31-.53,17.94-3.59,25.24-8.5-.57,1.7-1.23,4.23-1.34,4.68-.04.09-.06.18-.06.24-.09,1.14,1.99,1.85,2.23,1.93l1.55.34,4.9,1.05.09-.68s.18-1.55.26-2.28c1.07.04,1.94.1,2.31.19,1.17.27,2.12-.43,2.43-1.22.05-.14.08-.28.1-.42.33-2.64,2.43-9.87,3.05-11.07.65-1.28.36-2.4-.8-3.09M88.85,39.5c1.02,3.51,1.57,7.22,1.57,11.06s-.55,7.54-1.57,11.06v-22.12ZM88.85,68.19v-4.27c1.46-4.18,2.27-8.67,2.27-13.35s-.81-9.17-2.27-13.36v-18.54c7.48,8.94,11.57,20.1,11.57,31.9s-3.79,21.7-10.14,30.07c-1.5-.66-3.18-1.27-5.01-1.84,2.21-3.33,3.58-6.89,3.58-10.6M52.15,72.32h-3.18c-.16-.46-6.96-20.07-6.96-20.07-.05-.15-.2-.25-.35-.23-.16,0-.29.13-.32.29l-2.63,13.84c-.02.05-.02.12-.02.2,0,.35.14.97.45,2,0,0,.24.82.4,1.32-.82,0-6.53,0-6.53,0-.17,0-.31.12-.34.28,0,0-.12.6-.19.93-.51,0-9.33,0-10.5,0,1.64-2.31,3.42-4.87,3.5-5.18,0,0,9.92-44.18,10.04-44.72h3.2c.14.42,1.52,4.39,1.52,4.39.05.15.19.24.35.23.16,0,.29-.12.32-.28,0,0,.51-2.45.6-2.92h2.79c.16.46,5.94,17.1,5.94,17.1.05.14.18.23.33.23s.28-.09.33-.23c0,0,5.78-16.64,5.94-17.1h2.79c.1.46.6,2.92.6,2.92.03.16.16.27.32.28.16,0,.3-.09.35-.24,0,0,1.38-3.97,1.53-4.39h3.2c.12.54,10.04,44.72,10.04,44.72.08.31,1.86,2.88,3.49,5.19-1.17,0-9.98,0-10.49,0-.07-.33-.19-.93-.19-.93-.04-.16-.18-.28-.34-.28,0,0-5.71,0-6.53,0,.15-.5.4-1.32.4-1.32.29-.97.43-1.62.43-2.02,0-.11,0-.19-.03-.27l-2.61-13.76c-.03-.16-.16-.27-.32-.29-.16,0-.3.08-.35.24,0,0-6.81,19.61-6.96,20.07M53.72,69.92v4.58c-1.05-.02-2.1-.03-3.17-.03s-2.11,0-3.16.03v-4.57c.59,1.72.99,2.86.99,2.86.05.14.18.24.33.24h3.68c.15,0,.28-.1.33-.24,0,0,.4-1.15,1-2.87M47.4,14.77h6.33v14.45c-1.38,3.97-2.86,8.24-3.17,9.12-.3-.87-1.78-5.14-3.16-9.11v-14.45ZM36.88,13.13c4.27-1.57,8.88-2.43,13.68-2.43s9.42.86,13.69,2.43h-27.37ZM71.34,43.29h15.87v6.32h-14.45l-1.42-6.32ZM54.42,67.9c1.79-5.17,4.43-12.76,4.92-14.18.4,2.12,2.37,12.49,2.37,12.49,0,.03.01.07.01.13,0,.22-.07.7-.41,1.81l-.54,1.77s-.01.07-.01.1c0,.07.02.15.07.21.07.09.17.14.28.14,0,0,6.19,0,6.71,0,.07.33.19.93.19.93.03.16.18.28.34.28h11.45c.13,0,.25-.07.31-.18.06-.12.05-.25-.03-.36-1.38-1.95-3.63-5.17-3.78-5.52l-3.42-15.2h14.3v17.87c0,3.51-1.38,6.92-3.57,10.12-7.81-2.18-18.05-3.54-29.21-3.8v-6.61ZM87.21,14.77v27.82h-16.03l-4.95-22.03c-.04-.16-.18-.27-.34-.27h-3.73c-.15,0-.28.09-.33.23,0,0-.73,2.11-1.19,3.43-.19-.93-.4-1.95-.4-1.95-.04-.16-.18-.28-.34-.28h-3.32c-.15,0-.28.09-.33.24,0,0-.81,2.34-1.82,5.25v-12.43h32.79ZM50.56.7c12.25,0,23.8,4.41,32.91,12.43h-17.3c-4.81-2.01-10.08-3.13-15.61-3.13s-10.8,1.12-15.61,3.13h-17.3C26.76,5.11,38.31.7,50.56.7M13.9,14.77h32.79v12.44c-1.01-2.92-1.83-5.25-1.83-5.25-.05-.14-.18-.24-.33-.24h-3.32c-.17,0-.31.12-.34.28,0,0-.21,1.03-.41,1.95-.46-1.32-1.19-3.43-1.19-3.43-.05-.14-.18-.23-.33-.23h-3.73c-.17,0-.3.11-.34.27l-4.95,22.03H13.9V14.77ZM13.9,43.29h15.87l-1.42,6.32h-14.45v-6.32ZM13.9,50.32h14.3l-3.42,15.24c-.14.32-2.39,3.54-3.78,5.49-.08.11-.08.25-.03.36.06.12.18.19.31.19h11.46c.17,0,.31-.12.34-.29,0,0,.12-.6.19-.93.53,0,6.71,0,6.71,0,.11,0,.22-.05.28-.14.05-.06.07-.14.07-.21,0-.03,0-.06-.01-.1l-.53-1.77c-.35-1.19-.42-1.63-.42-1.78,0-.03,0-.05,0-.06,0,0,1.99-10.45,2.39-12.58.49,1.42,3.13,9.02,4.92,14.19v6.6c-11.17.26-21.41,1.61-29.22,3.8-2.2-3.2-3.58-6.61-3.58-10.12v-17.87ZM.7,50.56c0-11.8,4.09-22.96,11.57-31.9v18.55c-1.46,4.18-2.27,8.67-2.27,13.35s.8,9.16,2.27,13.35v4.28c0,3.71,1.38,7.27,3.58,10.6-1.83.57-3.51,1.18-5.01,1.84C4.49,72.26.7,61.85.7,50.56M12.27,39.51v22.11c-1.02-3.51-1.57-7.22-1.57-11.05s.55-7.54,1.57-11.05M21.22,98.2s-4.13.88-5.02,1.07c-.12-.49-.22-.91-.36-1.49,2.29-.06,5.03-.05,6.27,0-.23.14-.52.29-.89.41M12.2,96.8c-.54.12-.89-.21-.98-.45-.02-.05-.03-.09-.03-.13h0s0-.01,0-.02c0-.11.07-.17.16-.22,2.56-1.39,5.86-2.61,9.7-3.63.41,1.08.95,3.02,1.27,4.21-2.12-.11-8.74-.08-10.12.23M22.77,91.91c1.72-.41,3.53-.78,5.42-1.11,6.02,4.26,12.5,7.52,17.02,9.32-8.24-.88-15.88-3.79-22.44-8.21M53.72,88.84v10.42c-1.49.53-2.61.82-3.17.82s-1.67-.29-3.16-.82v-10.42h-.7v10.16c-4-1.51-10.24-4.53-16.21-8.58,6.13-.93,12.98-1.44,20.07-1.44s13.94.51,20.07,1.44c-5.97,4.04-12.21,7.07-16.2,8.58v-10.16h-.7ZM55.92,100.12c4.51-1.8,10.99-5.05,17.02-9.32,1.89.33,3.7.7,5.42,1.11-6.55,4.41-14.19,7.32-22.44,8.21M84.9,99.27c-.97-.21-3.6-.78-3.6-.78l-1.4-.3c-.36-.12-.64-.26-.86-.39,1.27-.06,3.83-.07,6.04-.02-.06.54-.11.95-.17,1.49M89.93,96.22s-.01.08-.03.13c-.09.24-.44.57-.98.45-1.38-.32-8-.35-10.12-.23.32-1.19.86-3.14,1.27-4.21,3.84,1.02,7.14,2.24,9.7,3.63.08.05.16.11.16.22,0,0,0,0,0,.02h0ZM93.1,84.73c-.57,1.11-2.25,6.73-2.93,10.06-8.14-4.35-23.28-7.06-39.61-7.06s-31.47,2.7-39.61,7.06c-.68-3.33-2.36-8.95-2.93-10.06-.35-.68-.25-1.1.33-1.45,7.74-4.6,24.31-7.57,42.21-7.57s34.47,2.97,42.21,7.57c.58.35.68.77.33,1.45M96.94,51.28c-1.53-.07-1.31,1.87-2.41,1.83-.58-.02-.78-.55-.77-.91.02-.33.17-.71.28-.92l-.65-.09c-.12.29-.23.59-.24.91-.04.9.34,1.66,1.4,1.7,1.62.07,1.49-1.86,2.44-1.82.51.02.64.45.62.81-.02.33-.08.51-.24.83l.64.12c.14-.31.21-.66.22-.95.04-.81-.4-1.46-1.28-1.5M93.83,37.48c-1.45.37-2.28,1.39-1.94,2.72.33,1.33,1.55,1.84,3,1.47,1.42-.36,2.28-1.4,1.95-2.72-.34-1.32-1.59-1.83-3-1.47M96.23,39.11c.25.96-.54,1.66-1.51,1.91-.95.24-1.98.04-2.23-.96-.25-1,.56-1.66,1.51-1.9.97-.25,1.99,0,2.23.96M95.81,65.44l-3.8-1.16h0s4.38-.75,4.38-.75l.25-.84-4.72-1.43-.18.61,3.88,1.18h0s-4.47.78-4.47.78l-.24.79,4.72,1.43.18-.61ZM91.98,37.28c-.22-.16-.45-.53-.56-.84-.32-.87.14-1.85,1.23-2.25,1.04-.38,2.05-.01,2.4.96.11.31.13.64.06.96l.66-.18c.04-.36-.03-.69-.15-1.02-.47-1.29-1.76-1.88-3.19-1.36-1.47.54-2.09,1.77-1.61,3.1.09.25.25.63.52.9l.63-.27ZM60.22,49.09l3.19,16.8c.17.67-.11,1.68-.43,2.76h5.15s-5.49-26.53-5.49-26.53l-2.42,6.97ZM92.74,43.87l2.23-.3.29,2.13-2.23.3.08.64,4.89-.66-.09-.64-2.04.27-.29-2.13,2.05-.27-.08-.64-4.89.66.09.64ZM8.57,58.4l-2.22.36-.37-2.33,2.22-.35-.11-.7-4.87.77.11.7,2.04-.32.37,2.33-2.04.33.11.7,4.87-.78-.11-.7ZM8.78,59.99l-.65.22c.21.2.42.63.52.97.27.99-.25,2-1.37,2.3-1.07.3-2.06-.22-2.36-1.31-.1-.35-.1-.71,0-1.05l-.68.13c-.06.38-.01.76.09,1.13.4,1.45,1.67,2.25,3.13,1.85,1.51-.42,2.2-1.68,1.79-3.19-.08-.28-.22-.71-.47-1.04M7.95,53.88l-1.26-.45-.09-2.41,1.22-.55-.03-.77-4.85,2.27.03.74,5.01,1.92-.03-.74ZM3.62,52.33l2.41-1.07.07,1.96-2.48-.89ZM7.9,48.27l-4.04-.34h0s4.23-1.9,4.23-1.9l.08-.9-4.91-.41-.06.7,3.96.33h0s-4.14,1.85-4.14,1.85l-.08.96,4.91.41.06-.7ZM9.72,36.06l-.62,1.96-1.55-.49.56-1.78-.59-.19-.57,1.78-1.37-.44.62-1.96-.59-.19-.84,2.63,4.7,1.5.84-2.63-.59-.19ZM5.85,43.64c1.54.32,2.73-.5,3.04-2.03.16-.75.12-1.24.09-1.52l-2.51-.52-.35,1.71.57.11.21-1.02,1.47.3c0,.18.02.31-.08.79-.21,1-1.13,1.67-2.26,1.43-1.08-.22-1.74-1.13-1.51-2.24.13-.62.31-.97.6-1.26l-.69-.2c-.22.37-.39.66-.53,1.37-.31,1.48.46,2.76,1.95,3.06M63.37,9.93c.74.22,1.22.24,1.5.23l.75-2.45-1.67-.51-.17.55.99.3-.44,1.43c-.18-.02-.32,0-.78-.15-.98-.3-1.55-1.28-1.22-2.39.32-1.05,1.29-1.63,2.37-1.29.61.19.93.4,1.2.72l.26-.67c-.35-.25-.62-.45-1.31-.66-1.44-.44-2.79.2-3.23,1.66-.46,1.5.24,2.76,1.74,3.22M55.06,7.45l-2.05-.15.11-1.62,1.87.13.04-.62-1.87-.13.1-1.44,2.05.15.05-.62-2.75-.19-.35,4.92,2.76.2.04-.62ZM57.56,4.32h.01s1.48,4.39,1.48,4.39l.89.16.87-4.85-.7-.12-.7,3.91h-.01s-1.44-4.29-1.44-4.29l-.95-.17-.87,4.85.69.13.72-3.99ZM51.46,7.84v-.62s-2.07.04-2.07.04l-.07-4.31h-.71s.08,4.94.08,4.94l2.77-.05ZM68.58,11.84l.24-.57-1.89-.8.64-1.5,1.72.73.24-.57-1.72-.73.56-1.33,1.89.8.25-.57-2.54-1.08-1.93,4.54,2.54,1.08ZM36,10.4l-.68-2.14,2.25-.71.68,2.14.67-.21-1.49-4.7-.67.21.62,1.97-2.25.71-.62-1.97-.67.21,1.49,4.7.67-.21ZM33.26,10.94c-.93.42-2.01.07-2.49-.98-.46-1.01-.12-2.07.92-2.54.33-.15.68-.21,1.04-.17l-.23-.65c-.39,0-.75.11-1.1.27-1.37.63-1.95,2-1.32,3.39.65,1.43,2.02,1.9,3.44,1.26.26-.12.67-.33.95-.63l-.32-.61c-.16.24-.55.52-.88.67M40.6,7.76l2.37-.49.74,1.12.75-.16-3.03-4.41-.73.15-1.08,5.25.73-.15.24-1.32ZM41.17,4.55l1.45,2.2-1.92.39.47-2.59ZM47.93,7.91l-.06-.62-2.06.21-.43-4.29-.7.07.49,4.91,2.76-.28Z"/>
      <g>
        <g>
          <polygon class="cls-1" points="167.61 18.68 167.46 18.68 155.82 59.6 147.81 59.6 136.62 18.68 136.47 18.68 136.47 59.6 125.35 59.6 125.35 7.85 143.66 7.85 152.04 41.14 152.19 41.14 161.23 7.85 178.73 7.85 178.73 59.6 167.61 59.6 167.61 18.68"/>
          <path class="cls-1" d="M215.58,48.03h-16.24l-3.56,11.57h-11.71l17.2-51.75h13.34l16.61,51.75h-12.45l-3.19-11.57ZM207.86,17.79h-.15l-6.15,21.5h11.64l-5.34-21.5Z"/>
          <polygon class="cls-1" points="261.32 38.1 248.71 38.1 248.71 59.6 236.56 59.6 236.56 7.85 248.71 7.85 248.71 28.46 261.32 28.46 261.32 7.85 273.48 7.85 273.48 59.6 261.32 59.6 261.32 38.1"/>
          <path class="cls-1" d="M310.32,48.03h-16.23l-3.56,11.57h-11.71l17.2-51.75h13.34l16.61,51.75h-12.45l-3.19-11.57ZM302.61,17.79h-.15l-6.15,21.5h11.64l-5.34-21.5Z"/>
          <polygon class="cls-1" points="331.08 7.85 345.31 7.85 360.36 43.74 360.51 43.74 360.51 7.85 371.19 7.85 371.19 59.6 356.81 59.6 341.9 22.16 341.76 22.16 341.76 59.6 331.08 59.6 331.08 7.85"/>
          <path class="cls-1" d="M407.81,48.03h-16.23l-3.56,11.57h-11.71l17.2-51.75h13.34l16.61,51.75h-12.45l-3.19-11.57ZM400.1,17.79h-.15l-6.15,21.5h11.64l-5.34-21.5Z"/>
          <rect class="cls-1" x="428.79" y="7.85" width="12.16" height="51.75"/>
          <polygon class="cls-1" points="492.99 18.68 492.85 18.68 481.2 59.6 473.2 59.6 462 18.68 461.85 18.68 461.85 59.6 450.73 59.6 450.73 7.85 469.05 7.85 477.42 41.14 477.57 41.14 486.62 7.85 504.12 7.85 504.12 59.6 492.99 59.6 492.99 18.68"/>
        </g>
        <g>
          <g>
            <path class="cls-1" d="M397.94,78.28c-.66-.34-1.42-.63-2.28-.86-.86-.24-1.66-.36-2.41-.36-.91,0-1.66.21-2.26.63-.6.42-.9,1.07-.9,1.95,0,.73.23,1.3.7,1.72.46.42,1.04.79,1.73,1.12.69.33,1.44.66,2.24,1,.8.34,1.55.79,2.24,1.34.69.55,1.27,1.27,1.73,2.14.46.87.69,2.01.69,3.41,0,1.13-.21,2.14-.63,3.02-.42.89-1,1.64-1.75,2.26-.75.62-1.63,1.1-2.63,1.43-1.01.33-2.1.49-3.28.49-1.45,0-2.74-.13-3.89-.37-1.14-.25-1.97-.45-2.5-.61l.31-4.62c.84.32,1.65.64,2.44.97.79.33,1.71.49,2.75.49.43,0,.86-.06,1.27-.17.42-.11.79-.28,1.12-.51.33-.23.59-.52.78-.88.19-.36.29-.78.29-1.26,0-.77-.23-1.38-.69-1.82-.46-.44-1.04-.83-1.73-1.15-.69-.33-1.44-.66-2.24-.98-.8-.33-1.55-.76-2.24-1.31-.69-.55-1.27-1.25-1.73-2.13-.46-.87-.7-2.01-.7-3.41,0-.11.02-.36.05-.75.03-.38.14-.83.31-1.32.17-.5.42-1.03.76-1.58.34-.55.81-1.06,1.43-1.51.61-.45,1.38-.83,2.29-1.14s2.04-.46,3.38-.46c.54,0,1.04.02,1.49.07.45.05.9.1,1.34.17.44.07.88.15,1.31.26s.9.21,1.43.32l-.24,4.42Z"/>
            <path class="cls-1" d="M419.24,78.82c-.2-.11-.45-.25-.75-.41-.29-.16-.64-.31-1.03-.44-.4-.14-.84-.26-1.34-.36-.5-.1-1.06-.15-1.7-.15-.93,0-1.77.18-2.53.55-.76.36-1.41.88-1.94,1.56-.53.68-.94,1.5-1.22,2.46-.28.96-.43,2.04-.43,3.24s.16,2.21.48,3.16c.32.95.75,1.77,1.31,2.44.55.68,1.21,1.21,1.97,1.58.76.37,1.58.56,2.46.56.68,0,1.29-.06,1.84-.17.54-.11,1.01-.24,1.41-.37.4-.14.73-.27,1-.41.27-.14.48-.24.61-.31l.2,4.96c-.48.16-1.21.34-2.19.55-.98.2-2.24.3-3.75.3-1.63,0-3.12-.29-4.46-.88-1.35-.59-2.51-1.42-3.48-2.5-.97-1.07-1.73-2.37-2.27-3.89-.55-1.52-.82-3.22-.82-5.09,0-2.17.33-4.03.98-5.57.66-1.54,1.5-2.79,2.53-3.77,1.03-.97,2.18-1.69,3.45-2.14,1.27-.45,2.5-.68,3.7-.68,1.77,0,3.14.15,4.11.44.97.3,1.69.53,2.14.72l-.27,4.62Z"/>
            <polygon class="cls-1" points="434.12 87.32 428.34 87.32 428.34 97.16 422.77 97.16 422.77 73.46 428.34 73.46 428.34 82.9 434.12 82.9 434.12 73.46 439.69 73.46 439.69 97.16 434.12 97.16 434.12 87.32"/>
            <path class="cls-1" d="M443.49,85.31c0-1.74.2-3.36.61-4.86.41-1.49,1.02-2.79,1.85-3.89.83-1.1,1.87-1.96,3.14-2.58,1.27-.62,2.75-.93,4.45-.93s3.18.31,4.45.93c1.27.62,2.32,1.48,3.16,2.58.84,1.1,1.46,2.39,1.87,3.89.41,1.5.61,3.11.61,4.86s-.2,3.36-.61,4.86c-.41,1.5-1.03,2.79-1.87,3.89-.84,1.1-1.89,1.96-3.16,2.58-1.27.62-2.75.93-4.45.93s-3.18-.31-4.45-.93c-1.27-.62-2.32-1.48-3.14-2.58-.83-1.1-1.44-2.39-1.85-3.89-.41-1.5-.61-3.11-.61-4.86M449.2,85.31c0,1.13.07,2.2.22,3.21.15,1.01.39,1.88.73,2.63.34.75.78,1.34,1.34,1.77.55.43,1.24.65,2.05.65s1.5-.22,2.06-.65c.55-.43,1-1.02,1.34-1.77.34-.75.59-1.62.75-2.63.16-1.01.24-2.08.24-3.21s-.08-2.2-.24-3.21c-.16-1.01-.41-1.88-.75-2.63-.34-.75-.79-1.34-1.34-1.77-.56-.43-1.24-.64-2.06-.64s-1.5.21-2.05.64c-.56.43-1,1.02-1.34,1.77-.34.75-.58,1.63-.73,2.63-.15,1.01-.22,2.08-.22,3.21"/>
            <path class="cls-1" d="M466.76,85.31c0-1.74.2-3.36.61-4.86.41-1.49,1.02-2.79,1.85-3.89.83-1.1,1.87-1.96,3.14-2.58,1.27-.62,2.75-.93,4.45-.93s3.18.31,4.45.93c1.27.62,2.32,1.48,3.16,2.58.84,1.1,1.46,2.39,1.87,3.89.41,1.5.61,3.11.61,4.86s-.2,3.36-.61,4.86c-.41,1.5-1.03,2.79-1.87,3.89-.84,1.1-1.89,1.96-3.16,2.58-1.27.62-2.75.93-4.45.93s-3.18-.31-4.45-.93c-1.27-.62-2.32-1.48-3.14-2.58-.83-1.1-1.44-2.39-1.85-3.89-.41-1.5-.61-3.11-.61-4.86M472.46,85.31c0,1.13.07,2.2.22,3.21.15,1.01.39,1.88.73,2.63.34.75.78,1.34,1.34,1.77.55.43,1.24.65,2.05.65s1.5-.22,2.06-.65c.55-.43,1-1.02,1.34-1.77.34-.75.59-1.62.75-2.63.16-1.01.24-2.08.24-3.21s-.08-2.2-.24-3.21c-.16-1.01-.41-1.88-.75-2.63-.34-.75-.79-1.34-1.34-1.77-.56-.43-1.24-.64-2.06-.64s-1.5.21-2.05.64c-.56.43-1,1.02-1.34,1.77-.34.75-.58,1.63-.73,2.63-.15,1.01-.22,2.08-.22,3.21"/>
            <polygon class="cls-1" points="490.7 73.46 496.27 73.46 496.27 92.88 504.12 92.88 504.12 97.17 490.7 97.17 490.7 73.46"/>
          </g>
          <g>
            <rect class="cls-1" x="127.77" y="73" width="5.7" height="24.26"/>
            <polygon class="cls-1" points="137.96 73 144.63 73 151.69 89.82 151.76 89.82 151.76 73 156.76 73 156.76 97.26 150.02 97.26 143.04 79.71 142.96 79.71 142.96 97.26 137.96 97.26 137.96 73"/>
            <polygon class="cls-1" points="164.79 77.38 159.51 77.38 159.51 73 175.78 73 175.78 77.38 170.5 77.38 170.5 97.26 164.79 97.26 164.79 77.38"/>
            <polygon class="cls-1" points="178.63 73 192.64 73 192.64 77.24 184.12 77.24 184.12 82.66 192.22 82.66 192.22 86.9 184.12 86.9 184.12 93.02 193.06 93.02 193.06 97.26 178.63 97.26 178.63 73"/>
            <path class="cls-1" d="M196.67,73h8.9c1,0,1.94.12,2.83.35.89.23,1.68.6,2.36,1.09.68.5,1.22,1.15,1.62,1.95.39.8.59,1.76.59,2.87,0,.26-.03.66-.09,1.22-.06.56-.24,1.15-.56,1.77-.31.63-.79,1.22-1.44,1.77-.65.56-1.56.95-2.75,1.18v.07c.44.05.82.15,1.15.31.32.16.61.4.87.71.25.31.49.72.69,1.22.21.5.43,1.11.66,1.82l2.5,7.93h-5.98l-1.88-6.5c-.23-.83-.47-1.47-.7-1.91-.23-.44-.49-.77-.76-.97-.28-.21-.61-.33-.99-.37-.38-.03-.83-.05-1.34-.05v9.8h-5.7v-24.26ZM202.16,83.36h1.77c1.11,0,1.95-.31,2.5-.94.56-.63.83-1.38.83-2.26,0-.25-.03-.55-.1-.9-.07-.35-.22-.68-.43-1.01-.22-.32-.56-.6-1.01-.82-.45-.22-1.06-.33-1.83-.33h-1.74v6.26Z"/>
            <polygon class="cls-1" points="217.18 73 223.85 73 230.91 89.82 230.98 89.82 230.98 73 235.98 73 235.98 97.26 229.24 97.26 222.26 79.71 222.18 79.71 222.18 97.26 217.18 97.26 217.18 73"/>
            <path class="cls-1" d="M253.16,91.84h-7.61l-1.67,5.42h-5.49l8.06-24.26h6.26l7.79,24.26h-5.84l-1.5-5.42ZM249.54,77.66h-.07l-2.89,10.08h5.46l-2.5-10.08Z"/>
            <polygon class="cls-1" points="264.63 77.38 259.34 77.38 259.34 73 275.61 73 275.61 77.38 270.33 77.38 270.33 97.26 264.63 97.26 264.63 77.38"/>
            <rect class="cls-1" x="278.46" y="73" width="5.7" height="24.26"/>
            <path class="cls-1" d="M288.06,85.13c0-1.78.21-3.44.63-4.97.42-1.53,1.05-2.86,1.9-3.98.84-1.12,1.92-2,3.22-2.64,1.3-.64,2.82-.96,4.55-.96s3.26.32,4.56.96c1.3.64,2.37,1.52,3.23,2.64.86,1.13,1.49,2.45,1.91,3.98.42,1.53.63,3.19.63,4.97s-.21,3.44-.63,4.97c-.42,1.53-1.05,2.86-1.91,3.98-.86,1.12-1.94,2-3.23,2.64-1.3.64-2.82.95-4.56.95s-3.26-.32-4.55-.95c-1.3-.64-2.37-1.52-3.22-2.64-.85-1.12-1.48-2.45-1.9-3.98-.42-1.53-.63-3.18-.63-4.97M293.9,85.13c0,1.16.08,2.25.23,3.28.15,1.03.4,1.93.75,2.7.35.76.8,1.37,1.37,1.81.57.44,1.27.66,2.1.66s1.54-.22,2.1-.66c.57-.44,1.03-1.04,1.37-1.81.35-.77.6-1.66.76-2.7.16-1.03.24-2.12.24-3.28s-.08-2.25-.24-3.28c-.16-1.03-.42-1.93-.76-2.69-.35-.77-.81-1.37-1.37-1.81-.57-.44-1.27-.66-2.1-.66s-1.53.22-2.1.66c-.57.44-1.03,1.04-1.37,1.81-.35.76-.6,1.66-.75,2.69-.15,1.03-.23,2.13-.23,3.28"/>
            <polygon class="cls-1" points="312.46 73 319.13 73 326.19 89.82 326.26 89.82 326.26 73 331.26 73 331.26 97.26 324.52 97.26 317.54 79.71 317.46 79.71 317.46 97.26 312.46 97.26 312.46 73"/>
            <path class="cls-1" d="M348.44,91.84h-7.61l-1.67,5.42h-5.49l8.07-24.26h6.26l7.79,24.26h-5.84l-1.5-5.42ZM344.82,77.66h-.07l-2.89,10.08h5.46l-2.5-10.08Z"/>
            <polygon class="cls-1" points="358.27 73 363.98 73 363.98 92.88 372.01 92.88 372.01 97.26 358.27 97.26 358.27 73"/>
          </g>
        </g>
      </g>
    </g>
  </g>
</svg>