<svg xmlns="http://www.w3.org/2000/svg" width="58px" height="20px" id="Group_1" data-name="Group 1" viewBox="0 0 58.11 19.86"><defs><style> .cls-1 { fill: #13137b; } .cls-2 { fill: red; } </style></defs><g id="XMLID_6_"><path id="XMLID_9_" class="cls-1" d="M38.164,9.594h0c2.34-.468,3.945-2.073,3.945-4.347,0-4.213-4.146-5.216-6.687-5.149-2.34,0-4.48.067-6.821.267h0c-.2,0-.4.267-.4.535h0V19.09c0,.267.2.535.4.535h0c2.34.2,4.413.267,6.821.267,2.541,0,7.289-1,7.289-5.818C42.778,11.667,40.905,9.861,38.164,9.594ZM32.212,3.241h2.073c1.805,0,3.878.2,3.878,2.474,0,2.006-2.073,2.407-3.745,2.407h-2.14C32.212,6.451,32.212,4.846,32.212,3.241Zm2.474,13.508c-.8,0-1.6,0-2.407-.067v-5.55h2.407c2.006,0,4.079.267,4.079,2.875C38.765,16.214,36.492,16.749,34.686,16.749Z" transform="translate(-9.343 -0.032)"></path><path id="XMLID_8_" class="cls-1" d="M55.58,5.684c0-2.073,2.006-2.675,3.477-2.675a11.717,11.717,0,0,1,4.347.869l.4-3.21A17.784,17.784,0,0,0,58.656,0C54.845,0,51.1,1.538,51.1,5.885c0,6.353,9.429,4.815,9.429,8.492,0,1.739-2.207,2.474-3.878,2.474a11.2,11.2,0,0,1-4.881-1.2l-.4,3.477a20.881,20.881,0,0,0,5.483.736c4.347,0,8.158-1.6,8.158-5.818C65.076,7.623,55.58,9.027,55.58,5.684Z" transform="translate(-16.929)"></path><path id="XMLID_7_" class="cls-1" d="M16.517,8.024H9.094v3.009H13.24v5.483a12.31,12.31,0,0,1-2.541.267c-4.146,0-6.62-2.942-6.62-6.821,0-3.945,2.474-6.954,7.021-6.954a13.521,13.521,0,0,1,5.015,1.07L16.383.8A20.561,20.561,0,0,0,10.632,0C4.079,0,0,3.678,0,10.231c0,6.486,4.347,9.629,10.632,9.629a26.119,26.119,0,0,0,5.951-.869h0a.529.529,0,0,0,.334-.535v-9.9h0C16.918,8.292,16.717,8.024,16.517,8.024Z"></path></g><g id="XMLID_1_" transform="translate(48.28 0.134)"><path id="XMLID_4_" class="cls-2" d="M73.671,1.471H72.2V.2h4.28V1.471H74.942V6.887H73.671Z" transform="translate(-72.2 -0.2)"></path><path id="XMLID_2_" class="cls-2" d="M81.005,6.887,79.2.2h1.4l.669,2.809c.134.8.334,1.6.468,2.407h0a24,24,0,0,1,.535-2.34L83.012.2h1.337L82.477,6.887Z" transform="translate(-74.519 -0.2)"></path></g></svg>